<mxfile host="app.diagrams.net" modified="2021-12-18T04:11:16.061Z" agent="5.0 (X11; Linux x86_64) AppleWebKit/537.36 (KHTML, like Gecko) Chrome/96.0.4664.93 Safari/537.36" etag="i2YDs7HmFCjpZUUb1DG3" version="16.0.0" type="github">
  <diagram id="0gNpP7nLH5rsN4Q0Cdr3" name="Agent-socket">
    <mxGraphModel dx="1422" dy="727" grid="1" gridSize="10" guides="1" tooltips="1" connect="1" arrows="1" fold="1" page="1" pageScale="1" pageWidth="827" pageHeight="1169" math="0" shadow="0">
      <root>
        <mxCell id="0" />
        <mxCell id="1" parent="0" />
        <mxCell id="USS4ZyMqHf3yhqzhwOaA-1" value="Pool" style="swimlane;childLayout=stackLayout;resizeParent=1;resizeParentMax=0;startSize=20;horizontal=0;horizontalStack=1;" vertex="1" parent="1">
          <mxGeometry x="140" y="110" width="570" height="480" as="geometry" />
        </mxCell>
        <mxCell id="USS4ZyMqHf3yhqzhwOaA-2" value="ApplicationÂ " style="swimlane;startSize=20;" vertex="1" parent="USS4ZyMqHf3yhqzhwOaA-1">
          <mxGeometry x="20" width="120" height="480" as="geometry" />
        </mxCell>
        <mxCell id="USS4ZyMqHf3yhqzhwOaA-3" value="" style="swimlane;startSize=20;" vertex="1" parent="USS4ZyMqHf3yhqzhwOaA-1">
          <mxGeometry x="140" width="120" height="480" as="geometry" />
        </mxCell>
        <mxCell id="USS4ZyMqHf3yhqzhwOaA-4" value="Lane 3" style="swimlane;startSize=20;" vertex="1" parent="USS4ZyMqHf3yhqzhwOaA-1">
          <mxGeometry x="260" width="310" height="480" as="geometry" />
        </mxCell>
      </root>
    </mxGraphModel>
  </diagram>
</mxfile>
